<svg xmlns="http://www.w3.org/2000/svg" width="21.214" height="17.567" viewBox="0 0 21.214 17.567"><defs><style>.a{fill:#b6c6e0;}</style></defs><g transform="translate(-28.491 -520.785)"><path class="a" d="M32.144,525.018H28.867a.385.385,0,0,1-.376-.394V521.18a.386.386,0,0,1,.376-.4h3.277a.386.386,0,0,1,.375.4v3.444A.385.385,0,0,1,32.144,525.018Z"/><path class="a" d="M49.33,525.018H34.237a.385.385,0,0,1-.375-.394V521.18a.386.386,0,0,1,.375-.4H49.33a.386.386,0,0,1,.375.4v3.444A.385.385,0,0,1,49.33,525.018Z"/><path class="a" d="M32.144,531.531H28.867a.385.385,0,0,1-.376-.394v-3.445a.385.385,0,0,1,.376-.394h3.277a.385.385,0,0,1,.375.394v3.445A.385.385,0,0,1,32.144,531.531Z"/><path class="a" d="M49.33,531.531H34.237a.385.385,0,0,1-.375-.394v-3.445a.385.385,0,0,1,.375-.394H49.33a.385.385,0,0,1,.375.394v3.445A.385.385,0,0,1,49.33,531.531Z"/><path class="a" d="M32.144,538.352H28.867a.386.386,0,0,1-.376-.4v-3.444a.385.385,0,0,1,.376-.394h3.277a.385.385,0,0,1,.375.394v3.444A.386.386,0,0,1,32.144,538.352Z"/><path class="a" d="M49.33,538.352H34.237a.386.386,0,0,1-.375-.4v-3.444a.385.385,0,0,1,.375-.394H49.33a.385.385,0,0,1,.375.394v3.444A.386.386,0,0,1,49.33,538.352Z"/></g></svg>