<svg xmlns="http://www.w3.org/2000/svg" width="17.014" height="20.691" viewBox="0 0 17.014 20.691"><defs><style>.a{fill:#b6c6e0;}</style></defs><g transform="translate(-31.348 -267.784)"><path class="a" d="M35.419,278.6v-.923a.385.385,0,0,1,.13-.29l2.717-2.265c.422-.352.768-.19.768.36v.239a.382.382,0,0,1-.13.29l-2.127,1.828a.389.389,0,0,0,0,.581l2.128,1.834a.382.382,0,0,1,.13.29v.239c0,.55-.346.713-.769.361l-2.716-2.254A.383.383,0,0,1,35.419,278.6Z"/><path class="a" d="M41.23,281.142c-.423.351-.769.188-.769-.362v-.237a.387.387,0,0,1,.132-.294l2.12-1.828a.394.394,0,0,0,0-.589l-2.119-1.822a.387.387,0,0,1-.132-.3v-.236c0-.55.345-.712.768-.36l2.717,2.264a.389.389,0,0,1,.131.294v.917a.387.387,0,0,1-.132.3Z"/><path class="a" d="M48.362,287.475a1,1,0,0,1-1,1H32.348a1,1,0,0,1-1-1V268.784a1,1,0,0,1,1-1H47.362a1,1,0,0,1,1,1Zm-15.224-1.824a1,1,0,0,0,1,1H45.572a1,1,0,0,0,1-1V270.608a1,1,0,0,0-1-1H34.138a1,1,0,0,0-1,1Z"/></g></svg>