<svg id="star" xmlns="http://www.w3.org/2000/svg" width="1193.895" height="186" viewBox="0 0 1193.895 186"><defs><style>.a{opacity:0.8;}.b{fill:none;stroke:#e5ecf5;stroke-miterlimit:10;}.c{fill:#e5ecf5;}</style></defs><g class="a" transform="translate(-100.105 -302.009)"><line class="b" x2="1193.895" transform="translate(100.105 302.509)"/><line class="b" x2="1193.895" transform="translate(100.105 348.509)"/><rect class="c" width="96" height="10" rx="5" transform="translate(163 321)"/><rect class="c" width="54" height="10" rx="5" transform="translate(313 321)"/><rect class="c" width="427" height="10" rx="5" transform="translate(501 321)"/><rect class="c" width="83" height="10" rx="5" transform="translate(992 321)"/><circle class="c" cx="14" cy="14" r="14" transform="translate(120 312)"/><line class="b" x2="1193.895" transform="translate(100.105 394.509)"/><rect class="c" width="96" height="10" rx="5" transform="translate(163 367)"/><rect class="c" width="54" height="10" rx="5" transform="translate(313 367)"/><rect class="c" width="427" height="10" rx="5" transform="translate(501 367)"/><rect class="c" width="83" height="10" rx="5" transform="translate(992 367)"/><circle class="c" cx="14" cy="14" r="14" transform="translate(120 358)"/><line class="b" x2="1193.895" transform="translate(100.105 441.509)"/><rect class="c" width="96" height="10" rx="5" transform="translate(163 414)"/><rect class="c" width="54" height="10" rx="5" transform="translate(313 414)"/><rect class="c" width="427" height="10" rx="5" transform="translate(501 414)"/><rect class="c" width="83" height="10" rx="5" transform="translate(992 414)"/><circle class="c" cx="14" cy="14" r="14" transform="translate(120 405)"/><line class="b" x2="1193.895" transform="translate(100.105 487.509)"/><rect class="c" width="96" height="10" rx="5" transform="translate(163 460)"/><rect class="c" width="54" height="10" rx="5" transform="translate(313 460)"/><rect class="c" width="427" height="10" rx="5" transform="translate(501 460)"/><rect class="c" width="83" height="10" rx="5" transform="translate(992 460)"/><circle class="c" cx="14" cy="14" r="14" transform="translate(120 451)"/></g></svg>