<svg xmlns="http://www.w3.org/2000/svg" width="24" height="14.598" viewBox="0 0 24 14.598"><defs><style>.a{opacity:0.84;}.b{fill:#4e7fff;}</style></defs><g class="a" transform="translate(-27.747 -202.935)"><path class="b" d="M39.634,202.935a7.3,7.3,0,1,0,7.3,7.3A7.3,7.3,0,0,0,39.634,202.935Zm0,12.392a4.837,4.837,0,0,1-4.993-5.093,4.941,4.941,0,0,1,4.993-5.094,5.1,5.1,0,0,1,0,10.187Z"/><path class="b" d="M0,0H4.752a.2.2,0,0,1,.2.2V1.8a.2.2,0,0,1-.2.2H0A0,0,0,0,1,0,2V0A0,0,0,0,1,0,0Z" transform="translate(46.798 209.165)"/><path class="b" d="M.2,0H4.95a0,0,0,0,1,0,0V2a0,0,0,0,1,0,0H.2A.2.2,0,0,1,0,1.8V.2A.2.2,0,0,1,.2,0Z" transform="translate(27.747 209.165)"/></g></svg>