<svg xmlns="http://www.w3.org/2000/svg" width="21" height="21" viewBox="0 0 21 21"><defs><style>.a{fill:#b6c6e0;}</style></defs><g transform="translate(-29.074 -593.81)"><path class="a" d="M49.769,602.817l-2.647-.4a7.977,7.977,0,0,0-.5-1.323c.159-.224.419-.541.739-.951s1.079-1.418,1.212-1.607a20.487,20.487,0,0,0-2.756-2.606l-2.48,1.844a8.144,8.144,0,0,0-1.2-.5l-.475-3.231c0-.266-3.779-.329-3.814-.072-.061.461-.237,1.89-.379,3.113a8.115,8.115,0,0,0-1.211.608l-2.628-2.139a18.7,18.7,0,0,0-2.77,2.868c.594.729,1.731,2.186,2.086,2.7a6.727,6.727,0,0,0-.518,1.242s-3.353.512-3.353.62v3.538a30.968,30.968,0,0,0,3.225.553,7.117,7.117,0,0,0,.6,1.335c-.158.226-1.618,2.329-1.618,2.437a27.831,27.831,0,0,0,2.627,2.727c.133,0,2.374-1.843,2.374-1.843a8.15,8.15,0,0,0,1.2.5l.372,2.483c.009.117,3.9.168,3.958-.084.115-.449.2-1.3.338-2.521a7.212,7.212,0,0,0,1.21-.452s2.075,1.625,2.182,1.625a22.033,22.033,0,0,0,2.686-2.713c0-.117-1.245-1.748-1.556-2.2a8.514,8.514,0,0,0,.519-1.227l2.86-.407A23.373,23.373,0,0,0,49.769,602.817Zm-10.088,6.855a4.92,4.92,0,1,1,4.848-4.919A4.884,4.884,0,0,1,39.681,609.672Z"/></g></svg>