<svg xmlns="http://www.w3.org/2000/svg" width="21.409" height="17.6" viewBox="0 0 21.409 17.6"><defs><style>.a{fill:#b6c6e0;}</style></defs><g transform="translate(-29.453 -418.768)"><path class="a" d="M45.575,424.234a3.017,3.017,0,0,1-1.043-1.066H34.907a3.017,3.017,0,0,1-1.043,1.066,2.769,2.769,0,0,1-1.478.4,2.934,2.934,0,1,1,0-5.867,2.761,2.761,0,0,1,1.478.4,3.023,3.023,0,0,1,1.043,1.065h9.625a3.023,3.023,0,0,1,1.043-1.065,2.761,2.761,0,0,1,1.478-.4,2.934,2.934,0,1,1,0,5.867A2.769,2.769,0,0,1,45.575,424.234Zm.241-1.3a1.742,1.742,0,1,0,0-2.475,1.714,1.714,0,0,0,0,2.475Zm-12.192,0a1.742,1.742,0,1,0-2.475,0,1.716,1.716,0,0,0,2.475,0Zm.24,13.028a2.761,2.761,0,0,1-1.478.4,2.933,2.933,0,1,1,0-5.866,2.76,2.76,0,0,1,1.478.4,3.023,3.023,0,0,1,1.043,1.065H44.12a1.576,1.576,0,0,0,1.466-1.466v-1.333a.134.134,0,0,0-.133-.134H43.644a.41.41,0,0,1-.29-.7l3.376-3.376a.457.457,0,0,1,.646,0l3.362,3.362a.419.419,0,0,1-.3.715H48.675a.155.155,0,0,0-.155.156V430.5a4.732,4.732,0,0,1-4.4,4.4H34.907A3.023,3.023,0,0,1,33.864,435.967Zm-2.715-1.294a1.743,1.743,0,1,0,0-2.475,1.716,1.716,0,0,0,0,2.475Z"/></g></svg>