<svg xmlns="http://www.w3.org/2000/svg" width="20" height="20" viewBox="0 0 20 20"><defs><style>.a{fill:#b6c6e0;}</style></defs><g transform="translate(-29.714 -344.451)"><path class="a" d="M40.8,357.933a1.146,1.146,0,0,1-.293.9,1.441,1.441,0,0,1-.941.252,1.281,1.281,0,0,1-.964-.283,1.26,1.26,0,0,1-.256-.869,1.223,1.223,0,0,1,.271-.889,1.327,1.327,0,0,1,.949-.271,1.372,1.372,0,0,1,.963.264A1.221,1.221,0,0,1,40.8,357.933Zm-.856-2.266h-.72a.466.466,0,0,1-.465-.449l-.222-6.176a.464.464,0,0,1,.465-.482H40.15a.464.464,0,0,1,.465.48l-.2,6.176A.466.466,0,0,1,39.948,355.667Z"/><path class="a" d="M39.714,344.451a10,10,0,1,0,10,10A10,10,0,0,0,39.714,344.451Zm0,18c-3.342,0-8-2.88-8-8,0-3.466,3.1-8,8-8,3.32,0,8,2.865,8,8A8.159,8.159,0,0,1,39.714,362.451Z"/></g></svg>