<svg xmlns="http://www.w3.org/2000/svg" width="24.18" height="19.517" viewBox="0 0 24.18 19.517"><defs><style>.a{fill:#b6c6e0;}</style></defs><g transform="translate(-29.158 -123.123)"><path class="a" d="M52.188,138.584l-6.262-15.331a.3.3,0,0,0-.481-.012l-2.1,4.794a.214.214,0,0,1-.331.081l-1.958-1.553a.205.205,0,0,0-.315.075l-3.061,6.646a.2.2,0,0,1-.365,0l-2.7-5.843a.2.2,0,0,0-.374.027L31.736,135.9a.2.2,0,0,1-.263.13l-2.047-.775,0,2.14,3.347,1.268a.2.2,0,0,0,.262-.13l1.611-5.419a.2.2,0,0,1,.373-.027l2.3,4.971a.2.2,0,0,0,.364,0l3.8-8.266a.2.2,0,0,1,.307-.073l1.98,1.581a.22.22,0,0,0,.339-.086l1.132-2.662a.213.213,0,0,1,.392.034l3.954,10.054H52.2A.451.451,0,0,0,52.188,138.584Z"/><path class="a" d="M50.1,140.64H29.185c-.111,0,.153.058.153.168v1.6c0,.111-.264.232-.153.232H53.338v-.019c0-.682-.42-.981-.549-1.981H50.1Z"/></g></svg>